%TF.GenerationSoftware,KiCad,Pcbnew,10.0.0*%
%TF.CreationDate,2026-06-07T10:32:44-07:00*%
%TF.ProjectId,ecoSMRTv1,65636f53-4d52-4547-9631-2e6b69636164,rev?*%
%TF.SameCoordinates,Original*%
%TF.FileFunction,Legend,Top*%
%TF.FilePolarity,Positive*%
%FSLAX46Y46*%
G04 Gerber Fmt 4.6, Leading zero omitted, Abs format (unit mm)*
G04 Created by KiCad (PCBNEW 10.0.0) date 2026-06-07 10:32:44*
%MOMM*%
%LPD*%
G01*
G04 APERTURE LIST*
%ADD10C,0.100000*%
%ADD11C,0.150000*%
%ADD12C,0.120000*%
G04 APERTURE END LIST*
D10*
X142684836Y-136104912D02*
X142589598Y-136152531D01*
X142589598Y-136152531D02*
X142399122Y-136152531D01*
X142399122Y-136152531D02*
X142303884Y-136104912D01*
X142303884Y-136104912D02*
X142256265Y-136009673D01*
X142256265Y-136009673D02*
X142256265Y-135628721D01*
X142256265Y-135628721D02*
X142303884Y-135533483D01*
X142303884Y-135533483D02*
X142399122Y-135485864D01*
X142399122Y-135485864D02*
X142589598Y-135485864D01*
X142589598Y-135485864D02*
X142684836Y-135533483D01*
X142684836Y-135533483D02*
X142732455Y-135628721D01*
X142732455Y-135628721D02*
X142732455Y-135723959D01*
X142732455Y-135723959D02*
X142256265Y-135819197D01*
X143589598Y-136104912D02*
X143494360Y-136152531D01*
X143494360Y-136152531D02*
X143303884Y-136152531D01*
X143303884Y-136152531D02*
X143208646Y-136104912D01*
X143208646Y-136104912D02*
X143161027Y-136057292D01*
X143161027Y-136057292D02*
X143113408Y-135962054D01*
X143113408Y-135962054D02*
X143113408Y-135676340D01*
X143113408Y-135676340D02*
X143161027Y-135581102D01*
X143161027Y-135581102D02*
X143208646Y-135533483D01*
X143208646Y-135533483D02*
X143303884Y-135485864D01*
X143303884Y-135485864D02*
X143494360Y-135485864D01*
X143494360Y-135485864D02*
X143589598Y-135533483D01*
X144161027Y-136152531D02*
X144065789Y-136104912D01*
X144065789Y-136104912D02*
X144018170Y-136057292D01*
X144018170Y-136057292D02*
X143970551Y-135962054D01*
X143970551Y-135962054D02*
X143970551Y-135676340D01*
X143970551Y-135676340D02*
X144018170Y-135581102D01*
X144018170Y-135581102D02*
X144065789Y-135533483D01*
X144065789Y-135533483D02*
X144161027Y-135485864D01*
X144161027Y-135485864D02*
X144303884Y-135485864D01*
X144303884Y-135485864D02*
X144399122Y-135533483D01*
X144399122Y-135533483D02*
X144446741Y-135581102D01*
X144446741Y-135581102D02*
X144494360Y-135676340D01*
X144494360Y-135676340D02*
X144494360Y-135962054D01*
X144494360Y-135962054D02*
X144446741Y-136057292D01*
X144446741Y-136057292D02*
X144399122Y-136104912D01*
X144399122Y-136104912D02*
X144303884Y-136152531D01*
X144303884Y-136152531D02*
X144161027Y-136152531D01*
X144875313Y-136104912D02*
X145018170Y-136152531D01*
X145018170Y-136152531D02*
X145256265Y-136152531D01*
X145256265Y-136152531D02*
X145351503Y-136104912D01*
X145351503Y-136104912D02*
X145399122Y-136057292D01*
X145399122Y-136057292D02*
X145446741Y-135962054D01*
X145446741Y-135962054D02*
X145446741Y-135866816D01*
X145446741Y-135866816D02*
X145399122Y-135771578D01*
X145399122Y-135771578D02*
X145351503Y-135723959D01*
X145351503Y-135723959D02*
X145256265Y-135676340D01*
X145256265Y-135676340D02*
X145065789Y-135628721D01*
X145065789Y-135628721D02*
X144970551Y-135581102D01*
X144970551Y-135581102D02*
X144922932Y-135533483D01*
X144922932Y-135533483D02*
X144875313Y-135438245D01*
X144875313Y-135438245D02*
X144875313Y-135343007D01*
X144875313Y-135343007D02*
X144922932Y-135247769D01*
X144922932Y-135247769D02*
X144970551Y-135200150D01*
X144970551Y-135200150D02*
X145065789Y-135152531D01*
X145065789Y-135152531D02*
X145303884Y-135152531D01*
X145303884Y-135152531D02*
X145446741Y-135200150D01*
X145875313Y-136152531D02*
X145875313Y-135152531D01*
X145875313Y-135152531D02*
X146208646Y-135866816D01*
X146208646Y-135866816D02*
X146541979Y-135152531D01*
X146541979Y-135152531D02*
X146541979Y-136152531D01*
X147589598Y-136152531D02*
X147256265Y-135676340D01*
X147018170Y-136152531D02*
X147018170Y-135152531D01*
X147018170Y-135152531D02*
X147399122Y-135152531D01*
X147399122Y-135152531D02*
X147494360Y-135200150D01*
X147494360Y-135200150D02*
X147541979Y-135247769D01*
X147541979Y-135247769D02*
X147589598Y-135343007D01*
X147589598Y-135343007D02*
X147589598Y-135485864D01*
X147589598Y-135485864D02*
X147541979Y-135581102D01*
X147541979Y-135581102D02*
X147494360Y-135628721D01*
X147494360Y-135628721D02*
X147399122Y-135676340D01*
X147399122Y-135676340D02*
X147018170Y-135676340D01*
X147875313Y-135152531D02*
X148446741Y-135152531D01*
X148161027Y-136152531D02*
X148161027Y-135152531D01*
X148780075Y-135771578D02*
X149541980Y-135771578D01*
X149922932Y-135485864D02*
X150161027Y-136152531D01*
X150161027Y-136152531D02*
X150399122Y-135485864D01*
X151303884Y-136152531D02*
X150732456Y-136152531D01*
X151018170Y-136152531D02*
X151018170Y-135152531D01*
X151018170Y-135152531D02*
X150922932Y-135295388D01*
X150922932Y-135295388D02*
X150827694Y-135390626D01*
X150827694Y-135390626D02*
X150732456Y-135438245D01*
X142780074Y-139372419D02*
X142303884Y-139372419D01*
X142303884Y-139372419D02*
X142303884Y-138372419D01*
X143494360Y-139324800D02*
X143399122Y-139372419D01*
X143399122Y-139372419D02*
X143208646Y-139372419D01*
X143208646Y-139372419D02*
X143113408Y-139324800D01*
X143113408Y-139324800D02*
X143065789Y-139229561D01*
X143065789Y-139229561D02*
X143065789Y-138848609D01*
X143065789Y-138848609D02*
X143113408Y-138753371D01*
X143113408Y-138753371D02*
X143208646Y-138705752D01*
X143208646Y-138705752D02*
X143399122Y-138705752D01*
X143399122Y-138705752D02*
X143494360Y-138753371D01*
X143494360Y-138753371D02*
X143541979Y-138848609D01*
X143541979Y-138848609D02*
X143541979Y-138943847D01*
X143541979Y-138943847D02*
X143065789Y-139039085D01*
X144113408Y-139372419D02*
X144018170Y-139324800D01*
X144018170Y-139324800D02*
X143970551Y-139277180D01*
X143970551Y-139277180D02*
X143922932Y-139181942D01*
X143922932Y-139181942D02*
X143922932Y-138896228D01*
X143922932Y-138896228D02*
X143970551Y-138800990D01*
X143970551Y-138800990D02*
X144018170Y-138753371D01*
X144018170Y-138753371D02*
X144113408Y-138705752D01*
X144113408Y-138705752D02*
X144256265Y-138705752D01*
X144256265Y-138705752D02*
X144351503Y-138753371D01*
X144351503Y-138753371D02*
X144399122Y-138800990D01*
X144399122Y-138800990D02*
X144446741Y-138896228D01*
X144446741Y-138896228D02*
X144446741Y-139181942D01*
X144446741Y-139181942D02*
X144399122Y-139277180D01*
X144399122Y-139277180D02*
X144351503Y-139324800D01*
X144351503Y-139324800D02*
X144256265Y-139372419D01*
X144256265Y-139372419D02*
X144113408Y-139372419D01*
X145637218Y-139372419D02*
X145637218Y-138372419D01*
X145637218Y-138372419D02*
X146208646Y-139372419D01*
X146208646Y-139372419D02*
X146208646Y-138372419D01*
X147113408Y-138705752D02*
X147113408Y-139515276D01*
X147113408Y-139515276D02*
X147065789Y-139610514D01*
X147065789Y-139610514D02*
X147018170Y-139658133D01*
X147018170Y-139658133D02*
X146922932Y-139705752D01*
X146922932Y-139705752D02*
X146780075Y-139705752D01*
X146780075Y-139705752D02*
X146684837Y-139658133D01*
X147113408Y-139324800D02*
X147018170Y-139372419D01*
X147018170Y-139372419D02*
X146827694Y-139372419D01*
X146827694Y-139372419D02*
X146732456Y-139324800D01*
X146732456Y-139324800D02*
X146684837Y-139277180D01*
X146684837Y-139277180D02*
X146637218Y-139181942D01*
X146637218Y-139181942D02*
X146637218Y-138896228D01*
X146637218Y-138896228D02*
X146684837Y-138800990D01*
X146684837Y-138800990D02*
X146732456Y-138753371D01*
X146732456Y-138753371D02*
X146827694Y-138705752D01*
X146827694Y-138705752D02*
X147018170Y-138705752D01*
X147018170Y-138705752D02*
X147113408Y-138753371D01*
X148018170Y-138705752D02*
X148018170Y-139372419D01*
X147589599Y-138705752D02*
X147589599Y-139229561D01*
X147589599Y-139229561D02*
X147637218Y-139324800D01*
X147637218Y-139324800D02*
X147732456Y-139372419D01*
X147732456Y-139372419D02*
X147875313Y-139372419D01*
X147875313Y-139372419D02*
X147970551Y-139324800D01*
X147970551Y-139324800D02*
X148018170Y-139277180D01*
X148399123Y-138705752D02*
X148637218Y-139372419D01*
X148875313Y-138705752D02*
X148637218Y-139372419D01*
X148637218Y-139372419D02*
X148541980Y-139610514D01*
X148541980Y-139610514D02*
X148494361Y-139658133D01*
X148494361Y-139658133D02*
X148399123Y-139705752D01*
X149637218Y-139324800D02*
X149541980Y-139372419D01*
X149541980Y-139372419D02*
X149351504Y-139372419D01*
X149351504Y-139372419D02*
X149256266Y-139324800D01*
X149256266Y-139324800D02*
X149208647Y-139229561D01*
X149208647Y-139229561D02*
X149208647Y-138848609D01*
X149208647Y-138848609D02*
X149256266Y-138753371D01*
X149256266Y-138753371D02*
X149351504Y-138705752D01*
X149351504Y-138705752D02*
X149541980Y-138705752D01*
X149541980Y-138705752D02*
X149637218Y-138753371D01*
X149637218Y-138753371D02*
X149684837Y-138848609D01*
X149684837Y-138848609D02*
X149684837Y-138943847D01*
X149684837Y-138943847D02*
X149208647Y-139039085D01*
X150113409Y-138705752D02*
X150113409Y-139372419D01*
X150113409Y-138800990D02*
X150161028Y-138753371D01*
X150161028Y-138753371D02*
X150256266Y-138705752D01*
X150256266Y-138705752D02*
X150399123Y-138705752D01*
X150399123Y-138705752D02*
X150494361Y-138753371D01*
X150494361Y-138753371D02*
X150541980Y-138848609D01*
X150541980Y-138848609D02*
X150541980Y-139372419D01*
D11*
X150834819Y-105333333D02*
X151549104Y-105333333D01*
X151549104Y-105333333D02*
X151691961Y-105380952D01*
X151691961Y-105380952D02*
X151787200Y-105476190D01*
X151787200Y-105476190D02*
X151834819Y-105619047D01*
X151834819Y-105619047D02*
X151834819Y-105714285D01*
X150834819Y-104952380D02*
X150834819Y-104333333D01*
X150834819Y-104333333D02*
X151215771Y-104666666D01*
X151215771Y-104666666D02*
X151215771Y-104523809D01*
X151215771Y-104523809D02*
X151263390Y-104428571D01*
X151263390Y-104428571D02*
X151311009Y-104380952D01*
X151311009Y-104380952D02*
X151406247Y-104333333D01*
X151406247Y-104333333D02*
X151644342Y-104333333D01*
X151644342Y-104333333D02*
X151739580Y-104380952D01*
X151739580Y-104380952D02*
X151787200Y-104428571D01*
X151787200Y-104428571D02*
X151834819Y-104523809D01*
X151834819Y-104523809D02*
X151834819Y-104809523D01*
X151834819Y-104809523D02*
X151787200Y-104904761D01*
X151787200Y-104904761D02*
X151739580Y-104952380D01*
X155016666Y-118964819D02*
X155016666Y-119679104D01*
X155016666Y-119679104D02*
X154969047Y-119821961D01*
X154969047Y-119821961D02*
X154873809Y-119917200D01*
X154873809Y-119917200D02*
X154730952Y-119964819D01*
X154730952Y-119964819D02*
X154635714Y-119964819D01*
X155445238Y-119060057D02*
X155492857Y-119012438D01*
X155492857Y-119012438D02*
X155588095Y-118964819D01*
X155588095Y-118964819D02*
X155826190Y-118964819D01*
X155826190Y-118964819D02*
X155921428Y-119012438D01*
X155921428Y-119012438D02*
X155969047Y-119060057D01*
X155969047Y-119060057D02*
X156016666Y-119155295D01*
X156016666Y-119155295D02*
X156016666Y-119250533D01*
X156016666Y-119250533D02*
X155969047Y-119393390D01*
X155969047Y-119393390D02*
X155397619Y-119964819D01*
X155397619Y-119964819D02*
X156016666Y-119964819D01*
X137516666Y-118964819D02*
X137516666Y-119679104D01*
X137516666Y-119679104D02*
X137469047Y-119821961D01*
X137469047Y-119821961D02*
X137373809Y-119917200D01*
X137373809Y-119917200D02*
X137230952Y-119964819D01*
X137230952Y-119964819D02*
X137135714Y-119964819D01*
X138516666Y-119964819D02*
X137945238Y-119964819D01*
X138230952Y-119964819D02*
X138230952Y-118964819D01*
X138230952Y-118964819D02*
X138135714Y-119107676D01*
X138135714Y-119107676D02*
X138040476Y-119202914D01*
X138040476Y-119202914D02*
X137945238Y-119250533D01*
X146493333Y-113109580D02*
X146445714Y-113157200D01*
X146445714Y-113157200D02*
X146302857Y-113204819D01*
X146302857Y-113204819D02*
X146207619Y-113204819D01*
X146207619Y-113204819D02*
X146064762Y-113157200D01*
X146064762Y-113157200D02*
X145969524Y-113061961D01*
X145969524Y-113061961D02*
X145921905Y-112966723D01*
X145921905Y-112966723D02*
X145874286Y-112776247D01*
X145874286Y-112776247D02*
X145874286Y-112633390D01*
X145874286Y-112633390D02*
X145921905Y-112442914D01*
X145921905Y-112442914D02*
X145969524Y-112347676D01*
X145969524Y-112347676D02*
X146064762Y-112252438D01*
X146064762Y-112252438D02*
X146207619Y-112204819D01*
X146207619Y-112204819D02*
X146302857Y-112204819D01*
X146302857Y-112204819D02*
X146445714Y-112252438D01*
X146445714Y-112252438D02*
X146493333Y-112300057D01*
X146874286Y-112300057D02*
X146921905Y-112252438D01*
X146921905Y-112252438D02*
X147017143Y-112204819D01*
X147017143Y-112204819D02*
X147255238Y-112204819D01*
X147255238Y-112204819D02*
X147350476Y-112252438D01*
X147350476Y-112252438D02*
X147398095Y-112300057D01*
X147398095Y-112300057D02*
X147445714Y-112395295D01*
X147445714Y-112395295D02*
X147445714Y-112490533D01*
X147445714Y-112490533D02*
X147398095Y-112633390D01*
X147398095Y-112633390D02*
X146826667Y-113204819D01*
X146826667Y-113204819D02*
X147445714Y-113204819D01*
X145841905Y-108484819D02*
X145841905Y-107484819D01*
X145841905Y-107484819D02*
X146080000Y-107484819D01*
X146080000Y-107484819D02*
X146222857Y-107532438D01*
X146222857Y-107532438D02*
X146318095Y-107627676D01*
X146318095Y-107627676D02*
X146365714Y-107722914D01*
X146365714Y-107722914D02*
X146413333Y-107913390D01*
X146413333Y-107913390D02*
X146413333Y-108056247D01*
X146413333Y-108056247D02*
X146365714Y-108246723D01*
X146365714Y-108246723D02*
X146318095Y-108341961D01*
X146318095Y-108341961D02*
X146222857Y-108437200D01*
X146222857Y-108437200D02*
X146080000Y-108484819D01*
X146080000Y-108484819D02*
X145841905Y-108484819D01*
X147365714Y-108484819D02*
X146794286Y-108484819D01*
X147080000Y-108484819D02*
X147080000Y-107484819D01*
X147080000Y-107484819D02*
X146984762Y-107627676D01*
X146984762Y-107627676D02*
X146889524Y-107722914D01*
X146889524Y-107722914D02*
X146794286Y-107770533D01*
X141238095Y-108854819D02*
X141238095Y-107854819D01*
X141809523Y-108854819D02*
X141380952Y-108283390D01*
X141809523Y-107854819D02*
X141238095Y-108426247D01*
%TO.C,J3*%
D12*
X142540000Y-103620000D02*
X142540000Y-106380000D01*
X147730000Y-103620000D02*
X142540000Y-103620000D01*
X147730000Y-103620000D02*
X147730000Y-106380000D01*
X147730000Y-106380000D02*
X142540000Y-106380000D01*
X149000000Y-103620000D02*
X150380000Y-103620000D01*
X150380000Y-103620000D02*
X150380000Y-105000000D01*
%TO.C,J2*%
X154020000Y-120950000D02*
X154020000Y-124160000D01*
X154020000Y-120950000D02*
X156680000Y-120950000D01*
X154020000Y-125680000D02*
X154020000Y-129240000D01*
X154020000Y-130760000D02*
X154020000Y-134320000D01*
X154020000Y-135840000D02*
X154020000Y-139050000D01*
X154020000Y-139050000D02*
X156680000Y-139050000D01*
X156680000Y-120950000D02*
X156680000Y-121620000D01*
X156680000Y-121620000D02*
X157890000Y-121620000D01*
X156680000Y-123140000D02*
X156680000Y-126700000D01*
X156680000Y-128220000D02*
X156680000Y-131780000D01*
X156680000Y-133300000D02*
X156680000Y-136860000D01*
X156680000Y-138380000D02*
X156680000Y-139050000D01*
%TO.C,J1*%
X136520000Y-120950000D02*
X136520000Y-124160000D01*
X136520000Y-120950000D02*
X139180000Y-120950000D01*
X136520000Y-125680000D02*
X136520000Y-129240000D01*
X136520000Y-130760000D02*
X136520000Y-134320000D01*
X136520000Y-135840000D02*
X136520000Y-139050000D01*
X136520000Y-139050000D02*
X139180000Y-139050000D01*
X139180000Y-120950000D02*
X139180000Y-121620000D01*
X139180000Y-121620000D02*
X140390000Y-121620000D01*
X139180000Y-123140000D02*
X139180000Y-126700000D01*
X139180000Y-128220000D02*
X139180000Y-131780000D01*
X139180000Y-133300000D02*
X139180000Y-136860000D01*
X139180000Y-138380000D02*
X139180000Y-139050000D01*
%TO.C,C2*%
X149280000Y-116500000D02*
G75*
G02*
X144040000Y-116500000I-2620000J0D01*
G01*
X144040000Y-116500000D02*
G75*
G02*
X149280000Y-116500000I2620000J0D01*
G01*
%TO.C,D1*%
X142840000Y-110500000D02*
X143860000Y-110500000D01*
X144640000Y-109030000D02*
X144640000Y-111970000D01*
X144760000Y-109030000D02*
X144760000Y-111970000D01*
X144880000Y-109030000D02*
X144880000Y-111970000D01*
X150320000Y-110500000D02*
X149300000Y-110500000D01*
X143860000Y-109030000D02*
X149300000Y-109030000D01*
X149300000Y-111970000D01*
X143860000Y-111970000D01*
X143860000Y-109030000D01*
%TD*%
M02*
